/* XPM */
static char * close_active_xpm[] = {
"35 25 4 1",
" 	c None",
".	c #F8F8F8",
"+	c #FFA6A6",
"@	c #EDEDED",
"...................................",
"...................................",
"...................................",
"...................................",
"...................................",
"...................................",
"...................................",
"...................................",
"...................................",
"...................+.....+.........",
"....................+...+..........",
".....................+.+...........",
"......................+............",
".....................+.+...........",
"....................+...+..........",
"...................+.....+.........",
"...................................",
"...................................",
"...................................",
"...................................",
"...................................",
"...................................",
"...................................",
"...................................",
"@@@@@@@@@@@@@@@@@@@@@@@@@@@@@@@@@@@"};
