/* XPM */
static char * hide_prelight_xpm[] = {
"35 25 4 1",
" 	c None",
".	c #F8F8F8",
"+	c #D0D0D0",
"@	c #EDEDED",
"...................................",
"...................................",
"...................................",
"...................................",
"...................................",
"...................................",
"...................................",
"...................................",
"...................................",
"...................................",
"...................................",
"...................................",
"...................................",
"...................................",
"...................+++++++.........",
"...................................",
"...................................",
"...................................",
"...................................",
"...................................",
"...................................",
"...................................",
"...................................",
"...................................",
"@@@@@@@@@@@@@@@@@@@@@@@@@@@@@@@@@@@"};
