/* XPM */
static char * close_active_xpm[] = {
"15 25 10 1",
" 	c None",
".	c #F8F8F8",
"+	c #F6A29D",
"@	c #F68A84",
"#	c #F68781",
"$	c #F68F8A",
"%	c #F78A84",
"&	c #F88E89",
"*	c #F88F8A",
"=	c #F9908B",
"...............",
"...............",
"...............",
"...............",
"...............",
"...............",
"...............",
"...............",
".....+@#@+.....",
"....$%&*&%$....",
"...+%=====%+...",
"...@&=====&@...",
"...#*=====*#...",
"...@&=====&@...",
"...+%=====%+...",
"....$%&*&%$....",
".....+@#@+.....",
"...............",
"...............",
"...............",
"...............",
"...............",
"...............",
"...............",
"..............."};
