/* XPM */
static char * maximize_active_xpm[] = {
"15 25 9 1",
" 	c None",
".	c #F8F8F8",
"+	c #BEEBB0",
"@	c #99E382",
"#	c #8CE072",
"$	c #A6E692",
"%	c #93E27A",
"&	c #98E480",
"*	c #99E581",
"...............",
"...............",
"...............",
"...............",
"...............",
"...............",
"...............",
"...............",
".....+@#@+.....",
"....$%&&&%$....",
"...+%*****%+...",
"...@&*****&@...",
"...#&*****&#...",
"...@&*****&@...",
"...+%*****%+...",
"....$%&&&%$....",
".....+@#@+.....",
"...............",
"...............",
"...............",
"...............",
"...............",
"...............",
"...............",
"..............."};
