/* XPM */
static char * bottom_left_active_xpm[] = {
"5 5 4 1",
" 	c None",
".	c #353535",
"+	c #1A1A1A",
"@	c #333333",
".+@@@",
".+@@@",
".+@@@",
".++++",
" ...."};
