/* XPM */
static char * right_inactive_xpm[] = {
"5 5 4 1",
" 	c None",
".	c #333333",
"+	c #1A1A1A",
"@	c #353535",
"...+@",
"...+@",
"...+@",
"...+@",
"...+@"};
