/* XPM */
static char * top_right_inactive_xpm[] = {
"10 25 5 1",
" 	c None",
".	c #2F2F2F",
"+	c #353535",
"@	c #333333",
"#	c #1A1A1A",
"......... ",
".........+",
"@@@@@@@@#+",
"@@@@@@@@#+",
"@@@@@@@@#+",
"@@@@@@@@#+",
"@@@@@@@@#+",
"@@@@@@@@#+",
"@@@@@@@@#+",
"@@@@@@@@#+",
"@@@@@@@@#+",
"@@@@@@@@#+",
"@@@@@@@@#+",
"@@@@@@@@#+",
"@@@@@@@@#+",
"@@@@@@@@#+",
"@@@@@@@@#+",
"@@@@@@@@#+",
"@@@@@@@@#+",
"@@@@@@@@#+",
"@@@@@@@@#+",
"@@@@@@@@#+",
"@@@@@@@@#+",
"@@@@@@@@#+",
"@@@@@@@@#+"};
